<svg width="250.00000000000003" height="250.00000000000003" xmlns="http://www.w3.org/2000/svg">
 <g id="Layer_1">
  <title>Layer 1</title>
  <path id="svg_1" d="m74.76076,25.23925" opacity="NaN" stroke="#fff" fill="#fff"/>
  <path id="svg_2" d="m60.40669,3.70815" opacity="NaN" stroke="#fff" fill="#fff"/>
  <path id="svg_3" d="m119.73684,6.10049c-0.47847,0.47847 -114.83255,107.17705 -114.95215,106.81818c0.1196,0.35887 96.77033,133.37324 97.72727,133.37324c0.95694,0 145.93303,-80.86125 145.81343,-81.22012c0.1196,0.35887 -108.01438,-148.92345 -108.13398,-149.28231c0.1196,0.35887 -109.92826,96.53113 -110.04786,96.17226c0.1196,0.35887 81.45932,118.5407 80.50239,115.66988c-0.95694,-2.87081 113.39714,-65.07178 113.27754,-65.43064c0.1196,0.35887 -86.00481,-117.3445 -86.12441,-117.70336c0.1196,0.35887 -77.87084,68.77993 -77.99044,68.42106c0.1196,0.35887 56.57894,94.61725 56.45934,94.25838c0.1196,0.35887 88.63636,-47.00956 88.51676,-47.36843c0.1196,0.35887 -75.00002,-76.67464 -75.11963,-77.0335c0.1196,0.35887 -40.07179,38.15791 -40.19139,37.79905c0.1196,0.35887 34.56937,68.77993 34.44976,68.42106c0.1196,0.35887 61.36363,-31.69855 60.88516,-32.17702c-0.47847,-0.47847 -54.54546,-49.76077 -54.66506,-50.11964c0.1196,0.35887 -24.76078,14.23447 -24.88039,13.8756c0.1196,0.35887 23.56458,56.8182 24.04305,56.8182c0.47847,0 36.36364,-17.70335 36.24404,-18.06222c0.1196,0.35887 -34.33016,-34.0909 -34.44976,-34.44976c0.1196,0.35887 -9.92825,5.14356 -10.04785,4.78469c0.1196,0.35887 14.47367,36.72251 14.35407,36.36364c0.1196,0.35887 16.86602,-4.42582 16.74641,-4.78469c0.1196,0.35887 -17.58375,-20.2153 -17.70335,-20.57417" opacity="NaN" stroke="red" fill="#000"/>
 </g>
</svg>